<svg xmlns="http://www.w3.org/2000/svg" xmlns:xlink="http://www.w3.org/1999/xlink" version="1.1" x="0px" y="0px" viewBox="0 0 100 100" enable-background="new 0 0 100 100" xml:space="preserve"><path d="M42.69,85.704c0.012,0,0.024,0,0.036,0c1.104-0.019,1.984-0.93,1.965-2.035l-1-56.782c-0.02-1.104-0.894-1.997-2.035-1.964  c-1.104,0.019-1.984,0.93-1.965,2.035l1,56.782C40.711,84.831,41.603,85.704,42.69,85.704z M57.315,85.704  c1.088,0,1.979-0.873,1.999-1.965l1-56.782c0.02-1.104-0.86-2.016-1.965-2.035c-1.059-0.043-2.015,0.859-2.035,1.964l-1,56.782  c-0.02,1.104,0.86,2.016,1.965,2.035C57.291,85.704,57.303,85.704,57.315,85.704z M76.961,24.922c-0.022,0-0.044-0.001-0.065-0.001  c-1.075,0-1.963,0.854-1.998,1.936l-2.001,62.204c0,1.97-1.601,3.573-3.567,3.573H30.68c-1.971,0-3.573-1.603-3.574-3.638l-2-62.14  c-0.035-1.082-0.923-1.936-1.998-1.936c-0.021,0-0.043,0-0.065,0.001c-1.104,0.036-1.97,0.959-1.935,2.063l1.999,62.075  c0,4.176,3.397,7.573,7.573,7.573h38.649c4.173,0,7.567-3.397,7.566-7.509l2-62.14C78.931,25.882,78.064,24.958,76.961,24.922z   M82.02,14.922H68.326C66.873,7.468,60.408,3.366,50,3.366S33.127,7.468,31.674,14.922H17.98c-1.104,0-2,0.896-2,2s0.896,2,2,2  H82.02c1.104,0,2-0.896,2-2S83.124,14.922,82.02,14.922z M35.765,14.922C37.486,8.717,44.352,7.366,50,7.366  s12.514,1.352,14.235,7.557H35.765z"/></svg>
