<svg xmlns="http://www.w3.org/2000/svg" xmlns:xlink="http://www.w3.org/1999/xlink" version="1.1" x="0px" y="0px" viewBox="0 0 100 100" enable-background="new 0 0 100 100" xml:space="preserve"><path fill="#000000" d="M91.328,87.086L68.484,64.241C73.793,57.969,77,49.861,77,41C77,21.118,60.882,5,41,5S5,21.118,5,41  s16.118,36,36,36c8.861,0,16.969-3.207,23.241-8.517l22.845,22.845c0.778,0.778,2.051,0.778,2.828,0l1.414-1.414  C92.106,89.136,92.106,87.864,91.328,87.086z M11,41c0-16.542,13.458-30,30-30s30,13.458,30,30S57.542,71,41,71S11,57.542,11,41z"/><path fill="#000000" d="M57,38H44V25c0-1.1-0.9-2-2-2h-2c-1.1,0-2,0.9-2,2v13H25c-1.1,0-2,0.9-2,2v2c0,1.1,0.9,2,2,2h13v13  c0,1.1,0.9,2,2,2h2c1.1,0,2-0.9,2-2V44h13c1.1,0,2-0.9,2-2v-2C59,38.9,58.1,38,57,38z"/></svg>
